<svg width="15" height="13" viewBox="0 0 15 13" fill="none" xmlns="http://www.w3.org/2000/svg">
<path d="M0.239766 6.82225L5.65679 12.2394C5.81142 12.394 6.01752 12.4789 6.23727 12.4789C6.45727 12.4789 6.66325 12.3939 6.81788 12.2394L7.3097 11.7475C7.46421 11.5931 7.54933 11.3868 7.54933 11.167C7.54933 10.9472 7.46421 10.734 7.3097 10.5797L4.14949 7.41249L14.1896 7.41249C14.6423 7.41249 15 7.0581 15 6.6053V5.90982C15 5.45702 14.6423 5.0669 14.1896 5.0669L4.11363 5.0669L7.30958 1.88205C7.46409 1.72742 7.54921 1.52681 7.54921 1.30693C7.54921 1.0873 7.46409 0.883763 7.30958 0.729252L6.81776 0.238891C6.66312 0.084258 6.45715 -9.59912e-06 6.23715 -9.59912e-06C6.0174 -9.59912e-06 5.8113 0.0853549 5.65667 0.239988L0.239644 5.65702C0.0846454 5.81214 -0.000597277 6.01921 1.24732e-05 6.23933C-0.000475327 6.46018 0.0846454 6.66737 0.239766 6.82225Z" fill="white"/>
</svg>
